<svg xmlns="http://www.w3.org/2000/svg" viewBox="0 0 60 60"><defs><style>.cls-1{fill:#1890ff;}</style></defs><title>Asset 24</title><g id="Layer_2" data-name="Layer 2"><g id="Layer_1-2" data-name="Layer 1"><polygon class="cls-1" points="31.75 22.58 28.06 22.58 28.06 27.16 23.49 27.16 23.49 30.84 28.06 30.84 28.06 35.42 31.75 35.42 31.75 30.84 36.33 30.84 36.33 27.16 31.75 27.16 31.75 22.58"/><path class="cls-1" d="M30,0A30,30,0,1,0,60,30,30,30,0,0,0,30,0Zm.76,40.14-1.14,0C21.55,40.17,15,35.17,15,29s6.55-11.17,14.62-11.17,14.62,5,14.62,11.17a9.5,9.5,0,0,1-2.85,6.62A6.69,6.69,0,0,0,45,40.14Z"/></g></g></svg>